Coordinates
version=1
nRows=24
nColumns=24
inDegrees=yes

Units are S.I. units (second, meters, Newtons, ...)
Angles are in degrees.

endheader
time	pelvis_tilt	pelvis_list	pelvis_rotation	pelvis_tx	pelvis_ty	pelvis_tz	hip_flexion_r	hip_adduction_r	hip_rotation_r	knee_angle_r	ankle_angle_r	subtalar_angle_r	mtp_angle_r	hip_flexion_l	hip_adduction_l	hip_rotation_l	knee_angle_l	ankle_angle_l	subtalar_angle_l	mtp_angle_l	lumbar_extension	lumbar_bending	lumbar_rotation
      1.14150000	     -0.25800001	      3.33197341	      0.07756386	      0.13355661	      1.00494546	      0.28981063	     21.83280955	     -2.48112005	     -1.43233150	    -68.86147961	     -3.57445384	    -17.53896589	     -1.18072587	      7.16536141	      7.94853897	      1.74545571	    -11.40769105	      2.25120414	     -8.99730661	      3.21131060	     -0.99429763	     -0.72322945	      2.37482531
      1.14566667	     -0.26517892	      3.21727807	      0.06770518	      0.13861073	      1.00560969	      0.28971787	     22.36466476	     -2.31444713	     -1.33048667	    -68.54026874	     -2.71391687	    -17.58749664	     -6.10551987	      6.64697647	      7.83749285	      1.86747105	    -11.02504076	      2.31205959	     -9.09804380	      2.13609971	     -1.02299480	     -0.57753334	      2.32468491
      1.14983333	     -0.25932708	      3.03737486	      0.10047209	      0.14366931	      1.00630498	      0.28959726	     22.83286761	     -2.09224667	     -1.28927859	    -68.09510820	     -2.00009469	    -17.80050916	     -6.10594609	      6.13795897	      7.65035905	      1.99230085	    -10.69324543	      2.41543304	     -9.03992191	      2.14213889	     -1.06681613	     -0.34861552	      2.29435720
      1.15400000	     -0.24741048	      2.88257182	      0.11497723	      0.14871954	      1.00695342	      0.28950575	     23.28458988	     -1.88905060	     -1.21806900	    -67.60365308	     -1.28534840	    -18.00610905	     -6.10976313	      5.61784099	      7.48982250	      2.10519469	    -10.34475145	      2.48686753	     -9.05520728	      2.14381391	     -1.12027007	     -0.15264510	      2.24307132
      1.15816667	     -0.18778125	      2.74904072	      0.12420774	      0.15378160	      1.00763478	      0.28940542	     23.66375026	     -1.71677785	     -1.14734234	    -67.05172184	     -0.59961841	    -18.21426154	     -6.13392591	      5.01739799	      7.35834700	      2.28482262	     -9.93720911	      2.52360105	     -9.18215174	      2.13929344	     -1.23447530	      0.01268276	      2.15741612
      1.16233333	     -0.17245791	      2.60343401	      0.14179531	      0.15881750	      1.00819743	      0.28930849	     24.07334697	     -1.53200792	     -1.07940191	    -66.44149286	      0.08389991	    -18.34749040	     -6.16087458	      4.48932645	      7.21124730	      2.44926451	     -9.57535033	      2.56701665	     -9.29640154	      2.12935975	     -1.29487521	      0.19342354	      2.09170898
      1.16650000	     -0.18288434	      2.43419600	      0.16874561	      0.16385047	      1.00871409	      0.28923012	     24.48067736	     -1.31761030	     -1.01628352	    -65.75080543	      0.74001300	    -18.45905834	     -6.17719434	      4.01064611	      7.03295729	      2.58480028	     -9.25412058	      2.62388917	     -9.36160668	      2.12039297	     -1.31739623	      0.39245828	      2.04285421
      1.17066667	     -0.18522651	      2.27220806	      0.18841889	      0.16888498	      1.00917410	      0.28913928	     24.86624438	     -1.11984304	     -0.95784134	    -65.01650008	      1.37454810	    -18.55782047	     -6.18848947	      3.52076427	      6.86253435	      2.71258269	     -8.92762454	      2.69968605	     -9.41554410	      2.11240270	     -1.36320851	      0.61640350	      1.99198734
      1.17483333	     -0.11721407	      2.14716429	      0.20541375	      0.17392339	      1.00969394	      0.28906119	     25.15095061	     -0.96119587	     -0.88189700	    -64.22268926	      1.98889276	    -18.65784755	     -6.23452454	      2.92283589	      6.73647400	      2.91812656	     -8.53537195	      2.73220934	     -9.60146358	      2.08603810	     -1.48564469	      0.75667328	      1.88850851
      1.17900000	     -0.13094262	      2.00412647	      0.23297329	      0.17893474	      1.01004084	      0.28898284	     25.50883867	     -0.78509606	     -0.81575822	    -63.37734719	      2.58111962	    -18.73330156	     -6.27818963	      2.45058118	      6.58652498	      3.07856606	     -8.21529352	      2.80204957	     -9.71726545	      2.05982458	     -1.51296897	      0.93412439	      1.82406204
      1.18316667	     -0.15964548	      1.85145818	      0.26225348	      0.18394049	      1.01033990	      0.28892909	     25.85726107	     -0.59449203	     -0.74634514	    -62.46286920	      3.12466400	    -18.80458890	     -6.29967744	      2.01500116	      6.42011686	      3.19494038	     -7.93442333	      2.88237665	     -9.76562108	      2.04521750	     -1.51625121	      1.12224547	      1.78008155
      1.18733333	     -0.12377974	      1.73060112	      0.28272860	      0.18895255	      1.01065372	      0.28887682	     26.12113036	     -0.44412551	     -0.67344298	    -61.51260335	      3.64513443	    -18.90211119	     -6.35571200	      1.47497476	      6.29106918	      3.36800126	     -7.58362863	      2.95343500	     -9.90063171	      2.01111612	     -1.61337131	      1.26821953	      1.68615076
      1.19150000	     -0.18022481	      1.59739891	      0.31109721	      0.19393851	      1.01078717	      0.28883191	     26.46669773	     -0.27861460	     -0.59882562	    -60.50632042	      4.12836455	    -18.96642339	     -6.38115152	      1.08199083	      6.14436041	      3.47514950	     -7.32553069	      3.05196844	     -9.94972402	      1.99480972	     -1.58706003	      1.43577012	      1.64564131
      1.19566667	     -0.15418202	      1.48323077	      0.33471471	      0.19894282	      1.01099828	      0.28879434	     26.69817244	     -0.13649253	     -0.52408444	    -59.44640946	      4.56548690	    -19.08445518	     -6.44915428	      0.56168458	      6.01901528	      3.63719033	     -6.99166872	      3.13379613	    -10.06957418	      1.95521823	     -1.67351618	      1.57106602	      1.54993383
      1.19983333	     -0.20044271	      1.35710666	      0.36759472	      0.20393012	      1.01107970	      0.28876825	     26.98515326	      0.01883956	     -0.45132936	    -58.32765477	      4.97316393	    -19.15949713	     -6.48203480	      0.16179978	      5.87594891	      3.73696180	     -6.74031931	      3.23648638	    -10.10871588	      1.93605770	     -1.65888431	      1.72589100	      1.50779418
      1.20400000	     -0.18247596	      1.25471911	      0.38988680	      0.20892098	      1.01118570	      0.28874792	     27.18416284	      0.14852649	     -0.36880414	    -57.16572709	      5.31167011	    -19.30254609	     -6.54964884	     -0.33477995	      5.75992250	      3.87509263	     -6.43614793	      3.33894748	    -10.18660742	      1.89940548	     -1.73057963	      1.85224863	      1.42035936
      1.20816667	     -0.23006288	      1.15296004	      0.41541004	      0.21390403	      1.01114109	      0.28874199	     27.44127183	      0.27264902	     -0.29721674	    -55.96940452	      5.64451834	    -19.39302193	     -6.58978811	     -0.73396938	      5.64082919	      3.95617034	     -6.18151136	      3.44857062	    -10.22416742	      1.87836263	     -1.72687833	      1.97293612	      1.37679921
      1.21233333	     -0.23023791	      1.06295865	      0.43544623	      0.21889284	      1.01113989	      0.28874670	     27.61921276	      0.38947010	     -0.21080673	    -54.71257605	      5.86399005	    -19.58234522	     -6.68170562	     -1.20965287	      5.53452388	      4.08465878	     -5.87813111	      3.55258623	    -10.29477693	      1.83294614	     -1.78836183	      2.07586619	      1.28604274
      1.21650000	     -0.28512707	      0.98295074	      0.46113477	      0.22387429	      1.01098943	      0.28874628	     27.84370374	      0.48582459	     -0.13580765	    -53.42953682	      6.11241936	    -19.66792365	     -6.72935188	     -1.59223594	      5.43781583	      4.15414559	     -5.64233936	      3.67171927	    -10.31564570	      1.81021023	     -1.75941668	      2.18125011	      1.24830227
      1.22066667	     -0.27906587	      0.90386999	      0.47529270	      0.22886054	      1.01089611	      0.28877488	     27.97633935	      0.58987315	     -0.05007157	    -52.08964507	      6.23414482	    -19.87444474	     -6.83454480	     -2.06905792	      5.34026099	      4.25192526	     -5.34955194	      3.78724744	    -10.35198911	      1.76142782	     -1.83768531	      2.26718440	      1.16791120
      1.22483333	     -0.34082809	      0.82071444	      0.50013857	      0.23386364	      1.01067365	      0.28879009	     28.16140398	      0.68484297	      0.01188797	    -50.71348209	      6.38046671	    -19.97350143	     -6.89626135	     -2.44593693	      5.23751008	      4.30406584	     -5.11136487	      3.91238695	    -10.36694706	      1.73418877	     -1.80943738	      2.36472901	      1.13024060
      1.22900000	     -0.37574766	      0.75287332	      0.51617308	      0.23886819	      1.01044881	      0.28881798	     28.29684501	      0.76744491	      0.08681904	    -49.29600601	      6.43435629	    -20.12273356	     -6.97320699	     -2.86191883	      5.15128472	      4.36593905	     -4.85580043	      4.03729326	    -10.37536220	      1.70136358	     -1.82131250	      2.45425590	      1.07584257
      1.23316667	     -0.38288132	      0.70354149	      0.52100914	      0.24386624	      1.01021138	      0.28886965	     28.38596322	      0.83739869	      0.17933217	    -47.85004106	      6.41845328	    -20.34743412	     -7.10877997	     -3.31871571	      5.08408927	      4.42839377	     -4.57654019	      4.16107273	    -10.37747918	      1.64216801	     -1.87503310	      2.50465979	      1.00591339
      1.23733333	     -0.44616838	      0.64804255	      0.53314955	      0.24887421	      1.00984797	      0.28891386	     28.51815531	      0.90002369	      0.24090629	    -46.37678214	      6.42914999	    -20.40996638	     -7.18826487	     -3.69015607	      5.01094866	      4.44994199	     -4.34855912	      4.29292529	    -10.37823081	      1.60821718	     -1.84961568	      2.57430102	      0.97720078
